<svg xmlns="http://www.w3.org/2000/svg" viewBox="0 0 128 128" width="128" height="128">
  <circle cx="64" cy="64" r="64" fill="#4D8F87"/>
  <g transform="translate(17.38,106.72) scale(0.17297,-0.17297)">
    <path d="M167 91Q193 91 213.5 113.5Q234 136 247 179L315 500H459L387 160Q385 151 384.0 143.5Q383 136 383 128Q383 108 392.5 99.5Q402 91 424 91Q450 91 471.0 114.0Q492 137 505 179H547Q515 87 464.0 40.5Q413 -6 346 -6Q303 -6 277.0 18.5Q251 43 247 89Q218 41 181.5 17.5Q145 -6 99 -6Q49 -6 20.5 25.5Q-8 57 -8 114Q-8 127 -6.0 143.5Q-4 160 0 179L68 500H212L140 160Q138 152 137.5 145.5Q137 139 137 132Q137 112 144.5 101.5Q152 91 167 91Z" fill="#ffffff"/>
  </g>
</svg>
