<?xml version="1.0" encoding="UTF-8"?>
<svg xmlns="http://www.w3.org/2000/svg"
     viewBox="0 0 1123 379"
     width="1123" height="379">
  <g transform="translate(0,379) scale(0.1,-0.1)" fill="#ffffff" stroke="none">
    <path d="M735 3446 c-158 -6 -178 -11 -222 -60 -13 -13 -27 -47 -33 -75 -8 -35 -10 -430 -8 -1295 3 -1356 -1 -1257 55 -1380 26 -56 132 -154 207 -189 115 -56 172 -61 630 -61 307 0 415 3 424 12 17 17 17 392 0 406 -8 6 -79 8 -187 6 -186 -4 -238 3 -271 39 -53 56 -50 -14 -50 1322 0 1220 0 1242 -20 1260 -17 15 -42 17 -197 19 -98 0 -245 -1 -328 -4z"/>
    <path d="M2181 3447 c-144 -5 -170 -11 -212 -48 -17 -14 -18 -92 -18 -1369 l0 -1354 21 -41 c27 -53 123 -150 174 -175 22 -11 69 -31 105 -44 64 -24 72 -24 474 -27 359 -3 411 -1 418 12 5 9 9 102 9 207 1 149 -2 194 -13 200 -7 5 -60 6 -118 3 -185 -11 -262 17 -289 105 -8 28 -11 374 -11 1268 0 968 -3 1233 -12 1246 -11 14 -40 17 -198 19 -102 2 -250 1 -330 -2z"/>
    <path d="M3454 3361 c-13 -15 -15 -195 -15 -1486 0 -1294 2 -1469 15 -1477 23 -14 629 -13 670 2 41 14 75 51 92 98 9 27 12 343 13 1390 l0 1355 -23 40 -13 22 -39 52 -59 65 l-36 25 -321 2 c-292 3 -322 1 -336 -14z"/>
    <path d="M4494 3432 c-15 -17 -16 -129 -14 -1490 2 -808 6 -1473 9 -1477 10 -10 646 -6 673 5 34 12 74 55 91 97 22 52 23 2712 1 2764 -20 47 -44 73 -93 98 -40 20 -55 21 -346 21 -282 0 -305 -1 -321 -18z"/>
    <path d="M5704 3462 c-47 -15 -69 -32 -97 -74 l-27 -42 0 -265 c0 -262 0 -265 24 -307 17 -29 39 -50 70 -65 44 -22 55 -23 306 -23 285 0 299 3 353 64 48 53 52 78 52 320 0 241 -6 283 -47 331 -55 66 -74 70 -355 69 -139 0 -265 -4 -279 -8z"/>
    <path d="M5693 2437 c-37 -16 -78 -53 -78 -70 0 -8 -6 -16 -12 -18 -10 -4 -14 -198 -16 -917 l-2 -913 21 -43 c13 -27 35 -51 59 -64 36 -20 51 -21 319 -21 315 0 329 2 377 66 l29 37 3 875 c1 553 -1 895 -8 929 -12 68 -42 110 -94 134 -37 17 -68 19 -306 18 -183 0 -273 -4 -292 -13z"/>
    <path d="M6641 3441 c-8 -12 -9 -398 -1 -411 4 -6 65 -9 159 -9 172 2 207 -8 241 -64 20 -31 20 -64 25 -1289 4 -934 8 -1260 17 -1269 8 -8 101 -11 332 -10 338 0 350 2 404 49 16 14 17 92 17 1366 l0 1351 -27 53 c-34 68 -120 147 -198 183 -113 53 -170 59 -585 59 -208 0 -381 -4 -384 -9z"/>
    <path d="M7989 3417 c-3 -18 -5 -112 -3 -208 l3 -175 206 -5 c199 -5 207 -6 242 -30 20 -14 37 -32 37 -40 0 -9 6 -22 12 -28 10 -10 12 -283 11 -1248 l-2 -1235 22 -22 c22 -22 25 -22 327 -20 328 2 365 7 409 53 53 56 51 -5 51 1327 0 1057 -2 1247 -15 1301 -38 159 -131 261 -296 325 l-84 32 -457 3 -457 3 -6 -33z"/>
    <path d="M9467 3437 c-17 -17 -17 -392 1 -406 7 -6 80 -9 191 -7 240 4 272 -7 303 -110 10 -31 13 -322 13 -1265 1 -1075 2 -1227 16 -1245 14 -19 25 -20 330 -17 336 2 359 5 412 55 54 51 52 -9 52 1338 0 1144 -1 1255 -17 1312 -50 182 -182 300 -383 343 -88 19 -900 20 -918 2z"/>
  </g>
</svg>
